<svg xmlns="http://www.w3.org/2000/svg" width="480" height="320" viewBox="0 0 480 320" role="img" aria-labelledby="invite-family-circle-title"><title id="invite-family-circle-title">책을 중심으로 연결된 가족 구성원을 나타내는 그림</title><rect width="480" height="320" rx="28" fill="#faf8f3"/><circle cx="240" cy="153" r="109" fill="#e3eee9"/><ellipse cx="240" cy="269" rx="140" ry="12" fill="#e5e1d8"/><path d="M165 149q75-88 150 0m-150 0q-30 97 75 97t75-97" fill="none" stroke="#91b3a2" stroke-width="3" stroke-dasharray="6 7"/><g fill="#2f5d50"><circle cx="160" cy="118" r="21"/><path d="M124 175v-14a36 36 0 0 1 72 0v14z"/></g><g fill="#b5651d"><circle cx="320" cy="118" r="21"/><path d="M284 175v-14a36 36 0 0 1 72 0v14z"/></g><path d="M198 196q21-14 42 0 21-14 42 0v57q-21-14-42 0-21-14-42 0z" fill="#fff" stroke="#2f5d50" stroke-width="3" stroke-linejoin="round"/><path d="M240 196v57" stroke="#2f5d50" stroke-width="3"/></svg>