<svg xmlns="http://www.w3.org/2000/svg" width="480" height="320" viewBox="0 0 480 320" role="img" aria-labelledby="add-photo-scan-poster-title"><title id="add-photo-scan-poster-title">책장 한 칸의 책등을 정면에서 촬영하는 안내 그림</title><rect width="480" height="320" rx="28" fill="#faf8f3"/><rect x="70" y="58" width="340" height="201" rx="16" fill="#e3eee9"/><rect x="105" y="102" width="29" height="127" rx="3" fill="#2f5d50"/><path d="M111 121h17" stroke="#faf8f3" stroke-width="3"/><rect x="144" y="89" width="29" height="140" rx="3" fill="#91b3a2"/><path d="M150 108h17" stroke="#faf8f3" stroke-width="3"/><rect x="183" y="113" width="29" height="116" rx="3" fill="#b5651d"/><path d="M189 132h17" stroke="#faf8f3" stroke-width="3"/><rect x="222" y="93" width="29" height="136" rx="3" fill="#2f5d50"/><path d="M228 112h17" stroke="#faf8f3" stroke-width="3"/><rect x="261" y="110" width="29" height="119" rx="3" fill="#91b3a2"/><path d="M267 129h17" stroke="#faf8f3" stroke-width="3"/><rect x="300" y="86" width="29" height="143" rx="3" fill="#2f5d50"/><path d="M306 105h17" stroke="#faf8f3" stroke-width="3"/><rect x="339" y="99" width="29" height="130" rx="3" fill="#b5651d"/><path d="M345 118h17" stroke="#faf8f3" stroke-width="3"/><path d="M91 232h298" stroke="#a98a65" stroke-width="8" stroke-linecap="round"/><path d="M84 98V77h22m268 0h22v21M84 219v23h22m268 0h22v-23" fill="none" stroke="#2f5d50" stroke-width="4" stroke-linecap="round"/></svg>